# xmcd
#
# Track frame offsets:
#	150
#	15682
#	33717
#	50690
#	70229
#	84663
#	109238
#	124825
#	142886
#	159893
#	179397
#	193809
#
# Disc length: 2912 seconds
#
# Revision: 1
# Processed by: cddbd v1.5.2PL0 Copyright (c) Steve Scherf et al.
# Submitted via: audiograbber 1.83.01
#
DISCID=a70b5e0c
DTITLE=Various Artist - CB20093
DYEAR=1900
DGENRE=karaoke
TTITLE0=Wariner, Steve w/Vocal - I'm Already Taken
TTITLE1=Dixie Chicks w/Vocal - Ready To Run
TTITLE2=Sons Of The Desert w/Vocal - Albuquerque
TTITLE3=Messina, Jo Dee w/Vocal - Silver Thunderbird
TTITLE4=Gregory, Clinton w/Vocal - Rocking The Country
TTITLE5=Hill, Faith w/Vocal - When You Cry
TTITLE6=Wariner, Steve - I'm Already Taken
TTITLE7=Dixie Chicks - Ready To Run
TTITLE8=Sons Of The Desert - Albuquerque
TTITLE9=Messina, Jo Dee - Silver Thunderbird
TTITLE10=Gregory, Clinton - Rocking The Country
TTITLE11=Hill, Faith - When You Cry
EXTD=
EXTT0=
EXTT1=
EXTT2=
EXTT3=
EXTT4=
EXTT5=
EXTT6=
EXTT7=
EXTT8=
EXTT9=
EXTT10=
EXTT11=
PLAYORDER=
